<svg width="24" height="22" viewBox="0 0 24 22" fill="none" xmlns="http://www.w3.org/2000/svg">
<path d="M13.2656 5.49145C13.2656 4.0957 12.1301 2.96021 10.7344 2.96021C9.33863 2.96021 8.20312 4.0957 8.20312 5.49145C8.20312 6.8872 9.33863 8.0227 10.7344 8.0227C12.1301 8.0227 13.2656 6.8872 13.2656 5.49145ZM9.14062 5.49145C9.14062 4.61264 9.85556 3.8977 10.7344 3.8977C11.6132 3.8977 12.3281 4.61264 12.3281 5.49145C12.3281 6.37026 11.6132 7.0852 10.7344 7.0852C9.85556 7.0852 9.14062 6.37026 9.14062 5.49145Z" fill="white"/>
<path d="M6.64444 11.5527C7.24673 11.2458 7.69345 10.7227 7.90237 10.0799C8.11125 9.43698 8.0573 8.7512 7.7504 8.14895C7.44351 7.54665 6.92044 7.09994 6.27759 6.89101C5.63465 6.68209 4.94892 6.73609 4.34667 7.04298C3.74437 7.34987 3.29766 7.87295 3.08873 8.51579C2.87986 9.15868 2.93381 9.84446 3.2407 10.4467C3.54759 11.049 4.07067 11.4957 4.71351 11.7046C4.97095 11.7883 5.23519 11.8298 5.4982 11.8298C5.89209 11.8298 6.28326 11.7367 6.64444 11.5527ZM5.0032 10.813C4.59848 10.6816 4.26919 10.4003 4.07597 10.0211C3.88275 9.64196 3.84876 9.21024 3.9803 8.80553C4.11178 8.40081 4.39303 8.07151 4.7722 7.87829C4.99959 7.76242 5.24583 7.70383 5.49384 7.70383C5.65941 7.70383 5.82581 7.72998 5.98786 7.78262C6.39258 7.91411 6.72187 8.19536 6.91509 8.57453C7.10831 8.9537 7.1423 9.38542 7.01076 9.79013C6.87928 10.1949 6.59803 10.5241 6.21886 10.7174C5.83964 10.9105 5.40792 10.9445 5.0032 10.813Z" fill="white"/>
<path d="M6.0088 17.5042C6.45711 17.8299 6.97743 17.9867 7.49319 17.9867C8.27657 17.9867 9.04963 17.625 9.54425 16.9442C9.94166 16.3972 10.1023 15.7283 9.99646 15.0605C9.89066 14.3927 9.53122 13.8061 8.98424 13.4088C8.43725 13.0114 7.76839 12.8507 7.10052 12.9566C6.43274 13.0623 5.84614 13.4218 5.44878 13.9687C4.62852 15.0978 4.87972 16.6838 6.0088 17.5042ZM6.20732 14.5198C6.45749 14.1754 6.82682 13.9491 7.24724 13.8825C7.33166 13.8691 7.41608 13.8625 7.49994 13.8625C7.83369 13.8625 8.15807 13.9673 8.43327 14.1673C9.14418 14.6838 9.30233 15.6823 8.78582 16.3932C8.2693 17.1041 7.27077 17.2623 6.55986 16.7458C5.84896 16.2292 5.6908 15.2307 6.20732 14.5198Z" fill="white"/>
<path d="M13.9755 17.9866C14.4913 17.9866 15.0117 17.8298 15.4599 17.5042C16.589 16.6838 16.8402 15.0978 16.0199 13.9687C15.6225 13.4218 15.0359 13.0623 14.3682 12.9565C13.7004 12.8508 13.0314 13.0114 12.4845 13.4087C11.9375 13.8061 11.578 14.3927 11.4722 15.0605C11.3664 15.7282 11.5271 16.3972 11.9244 16.9442C12.4192 17.6251 13.192 17.9866 13.9755 17.9866ZM13.0355 14.1672C13.3798 13.917 13.8008 13.8158 14.2215 13.8825C14.6419 13.9491 15.0112 14.1754 15.2614 14.5198C15.7779 15.2307 15.6197 16.2292 14.9088 16.7457C14.1979 17.2622 13.1993 17.1041 12.6829 16.3932C12.1664 15.6823 12.3246 14.6837 13.0355 14.1672Z" fill="white"/>
<path d="M15.1912 6.89094C14.5483 7.09986 14.0252 7.54658 13.7184 8.14888C13.4115 8.75117 13.3575 9.43691 13.5664 10.0798C13.7753 10.7227 14.2221 11.2458 14.8244 11.5526C15.1855 11.7366 15.5767 11.8297 15.9706 11.8297C16.2336 11.8297 16.4979 11.7882 16.7553 11.7046C17.3982 11.4957 17.9213 11.049 18.2281 10.4467C18.535 9.84439 18.5889 9.15866 18.3801 8.51577C18.1711 7.87288 17.7244 7.3498 17.1221 7.04295C16.5199 6.73606 15.8341 6.68216 15.1912 6.89094ZM16.6966 7.87827C17.0757 8.07149 17.357 8.40074 17.4885 8.8055C17.62 9.21022 17.586 9.64194 17.3928 10.0211C17.1996 10.4003 16.8703 10.6815 16.4656 10.813C16.0608 10.9445 15.6291 10.9106 15.2499 10.7173C14.8708 10.5241 14.5895 10.1949 14.458 9.79011C14.3265 9.38539 14.3605 8.95367 14.5537 8.5745C14.7469 8.19533 15.0762 7.91408 15.4809 7.7826C15.643 7.72991 15.8094 7.7038 15.975 7.7038C16.2229 7.7038 16.4692 7.76239 16.6966 7.87827Z" fill="white"/>
<path d="M12.3418 11C12.3418 10.1137 11.6207 9.39258 10.7344 9.39258C9.84802 9.39258 9.12694 10.1137 9.12694 11C9.12694 11.8864 9.84802 12.6075 10.7344 12.6075C11.6207 12.6075 12.3418 11.8864 12.3418 11ZM10.0644 11C10.0644 10.6306 10.365 10.3301 10.7344 10.3301C11.1038 10.3301 11.4043 10.6306 11.4043 11C11.4043 11.3694 11.1038 11.67 10.7344 11.67C10.365 11.67 10.0644 11.3694 10.0644 11Z" fill="white"/>
<path d="M23.8627 19.7073C23.3326 19.1772 22.6279 18.8853 21.8783 18.8853C21.1287 18.8853 20.424 19.1772 19.8939 19.7073C19.1913 20.4099 18.2571 20.7969 17.2634 20.7969H15.1344C16.3078 20.2693 17.3877 19.5273 18.3247 18.5903C20.3522 16.5629 21.4688 13.8673 21.4688 11C21.4688 8.90281 20.8638 6.87102 19.7192 5.12427C19.5774 4.9077 19.2868 4.84719 19.0702 4.98908C18.8537 5.13097 18.7932 5.42155 18.9351 5.63806C19.9793 7.23172 20.5312 9.08586 20.5312 11C20.5312 16.402 16.1364 20.7969 10.7344 20.7969C5.33236 20.7969 0.9375 16.402 0.9375 11C0.9375 5.59798 5.33236 1.20312 10.7344 1.20312C12.6517 1.20312 14.5086 1.75681 16.104 2.80438C16.3204 2.9465 16.611 2.88627 16.7531 2.6698C16.8952 2.45338 16.835 2.1628 16.6185 2.02067C14.8698 0.872516 12.8351 0.265625 10.7344 0.265625C7.86713 0.265625 5.17148 1.38219 3.14405 3.40967C1.11661 5.43716 0 8.13275 0 11C0 13.8673 1.11656 16.5629 3.14405 18.5904C5.17148 20.6178 7.86713 21.7344 10.7344 21.7344H17.2634C18.5075 21.7344 19.6771 21.2499 20.5568 20.3702C20.9098 20.0172 21.3791 19.8228 21.8783 19.8228C22.3775 19.8228 22.8468 20.0172 23.1998 20.3702C23.3828 20.5532 23.6796 20.5532 23.8627 20.3702C24.0458 20.1871 24.0458 19.8903 23.8627 19.7073Z" fill="white"/>
<path d="M17.9967 4.21291C18.12 4.21291 18.2409 4.16322 18.3281 4.07604C18.4153 3.98838 18.4655 3.86791 18.4655 3.74463C18.4655 3.62088 18.4153 3.50041 18.3281 3.41275C18.2409 3.32557 18.12 3.27588 17.9967 3.27588C17.8734 3.27588 17.7525 3.32557 17.6653 3.41275C17.5781 3.50041 17.528 3.62088 17.528 3.74463C17.528 3.86791 17.5781 3.98885 17.6653 4.07604C17.7525 4.16322 17.8734 4.21291 17.9967 4.21291Z" fill="white"/>
</svg>
